<svg width="384" height="398" viewBox="0 0 384 398" fill="none" xmlns="http://www.w3.org/2000/svg">
<path d="M10.6869 339.288C11.0879 336.531 13.5128 334.835 16.1044 334.305C19.6399 333.577 23.3915 335.162 26.5938 336.408C26.9873 336.514 27.4069 336.461 27.7615 336.26C28.1161 336.059 28.3772 335.727 28.4881 335.335C28.5881 334.941 28.5323 334.524 28.3324 334.17C28.1324 333.816 27.8036 333.553 27.4145 333.436C23.4532 331.912 19.1031 330.352 14.8271 331.425C11.4643 332.276 8.20024 334.872 7.68193 338.468C7.5871 338.861 7.64599 339.276 7.84662 339.628C8.04724 339.98 8.3745 340.242 8.76173 340.361C9.15523 340.467 9.57477 340.414 9.92938 340.213C10.284 340.012 10.5451 339.68 10.656 339.288H10.6869Z" fill="#231F20"/>
<path d="M8.91626 344.308C10.6871 348.538 12.4518 352.824 15.0002 356.641C17.4573 360.294 20.6006 363.436 24.2556 365.892C27.8183 368.237 31.6023 370.228 35.5533 371.836C39.8355 373.686 44.1609 375.413 48.5418 376.98C53.114 378.706 57.8796 379.87 62.7334 380.445C64.8868 380.667 67.466 380.914 68.8358 378.86C69.9712 377.152 69.6565 374.451 69.4529 372.521C68.6322 363.807 63.7947 355.975 57.1 350.425C53.4532 347.542 49.5472 345.003 45.432 342.84C40.9894 340.373 36.5036 338.005 32.0425 335.594L28.5316 333.695C26.7854 332.751 25.2243 335.415 26.9767 336.359L40.07 343.457C44.0085 345.487 47.8411 347.716 51.5529 350.135C58.1983 354.65 63.659 360.915 65.7445 368.821C66.2383 370.669 66.5096 372.57 66.5528 374.482C66.6525 375.306 66.6023 376.142 66.4047 376.949C66.1518 377.627 65.3373 377.565 64.7141 377.51C60.2345 377.35 55.7857 376.159 51.5529 374.753C47.3201 373.347 43.2107 371.67 39.0951 369.986C35.3925 368.534 31.802 366.811 28.3526 364.831C24.4929 362.662 21.12 359.723 18.4432 356.197C15.6295 352.325 13.7476 347.884 11.9088 343.494C11.791 343.102 11.5264 342.77 11.1702 342.568C10.8139 342.366 10.3934 342.309 9.99606 342.408C9.60313 342.521 9.26994 342.783 9.06805 343.138C8.86616 343.493 8.81166 343.913 8.91626 344.308Z" fill="#231F20"/>
<path d="M12.0075 344.524C11.993 342.746 11.6607 340.986 11.0264 339.325C10.9073 338.944 10.6556 338.618 10.3168 338.406C10.1398 338.302 9.9437 338.235 9.74018 338.209C9.53665 338.182 9.32988 338.197 9.13215 338.252C8.74487 338.359 8.41354 338.611 8.20661 338.955C8.1016 339.133 8.03377 339.33 8.00726 339.534C7.98074 339.739 7.99608 339.947 8.05236 340.145C8.43814 341.138 8.70732 342.173 8.85449 343.229L8.79896 342.815C8.87404 343.376 8.91525 343.94 8.92237 344.505C8.92237 344.914 9.08489 345.306 9.37417 345.595C9.66346 345.884 10.0558 346.047 10.4649 346.047C10.874 346.047 11.2664 345.884 11.5557 345.595C11.845 345.306 12.0075 344.914 12.0075 344.505V344.524Z" fill="#231F20"/>
<path d="M30.3885 334.2C43.2658 329.618 54.2304 320.979 63.3624 310.97C73.4261 299.919 81.6635 287.277 90.1538 275.005L105.376 252.989C105.58 252.636 105.637 252.216 105.533 251.821C105.429 251.425 105.173 251.087 104.821 250.88C104.466 250.682 104.048 250.628 103.655 250.73C103.261 250.832 102.923 251.083 102.71 251.429C93.9732 264.065 85.3348 276.775 76.4681 289.318C68.4097 300.721 59.7034 311.889 48.6216 320.535C42.8819 325.089 36.4491 328.695 29.5678 331.216C29.1793 331.335 28.851 331.598 28.6502 331.951C28.4494 332.304 28.3914 332.72 28.488 333.115C28.6004 333.508 28.8624 333.841 29.2177 334.042C29.5731 334.244 29.9934 334.299 30.3885 334.194V334.2Z" fill="#231F20"/>
<path d="M57.9203 307.769C63.0478 300.203 68.7183 293.031 74.432 285.908C80.2197 278.693 86.063 271.502 91.462 263.985C94.473 259.779 97.3422 255.475 99.9769 251.034C100.989 249.326 98.3233 247.772 97.3114 249.48C92.5915 257.281 87.3729 264.768 81.6882 271.897C75.9869 279.198 70.0696 286.333 64.4115 293.666C61.2461 297.767 58.1671 301.935 55.2548 306.221C54.138 307.868 56.8097 309.416 57.9203 307.782V307.769Z" fill="#231F20"/>
<path d="M54.2984 307.997C54.0664 308.795 54.0546 309.64 54.2642 310.443C54.4739 311.247 54.8972 311.978 55.4893 312.561C55.7824 312.845 56.1732 313.006 56.5814 313.011C56.99 313.009 57.3814 312.846 57.6704 312.558C57.9593 312.269 58.1223 311.878 58.124 311.469C58.1178 311.06 57.9543 310.669 57.6674 310.378C57.5587 310.272 57.4576 310.159 57.365 310.039L57.6057 310.353C57.451 310.146 57.3225 309.92 57.2231 309.681L57.3774 310.051C57.2737 309.798 57.2032 309.533 57.1676 309.262L57.2231 309.669C57.1892 309.413 57.1892 309.154 57.2231 308.898L57.1676 309.305C57.1921 309.14 57.2293 308.977 57.2786 308.818C57.3867 308.416 57.3312 307.988 57.1244 307.627C56.9171 307.275 56.579 307.019 56.1837 306.915C55.7884 306.811 55.368 306.868 55.0141 307.072C54.6715 307.284 54.4172 307.613 54.2984 307.997Z" fill="#231F20"/>
<path d="M65.7445 354.742C72.2479 337.24 81.528 320.991 90.7032 304.791L98.1076 291.711C100.428 287.61 102.686 283.472 105.166 279.464C107.565 275.715 110.205 272.127 113.071 268.721C115.804 265.385 118.494 261.999 120.506 258.163C124.3 250.942 126.256 242.13 132.846 236.795C133.133 236.504 133.294 236.112 133.294 235.704C133.294 235.295 133.133 234.903 132.846 234.612C132.553 234.333 132.163 234.177 131.757 234.177C131.352 234.177 130.962 234.333 130.668 234.612C124.664 239.496 122.307 247.119 119.179 253.896C117.47 257.57 115.328 261.027 112.799 264.194C109.955 267.777 106.937 271.218 104.377 275.017C101.73 278.946 99.4404 283.102 97.108 287.221L89.8394 300.048C85.15 308.367 80.3742 316.662 75.8946 325.141C70.8958 334.442 66.5037 344.055 62.7457 353.922C62.6848 354.119 62.6642 354.327 62.6852 354.532C62.7062 354.738 62.7682 354.937 62.8677 355.118C62.9672 355.299 63.1021 355.458 63.2644 355.586C63.4267 355.714 63.613 355.808 63.8124 355.863C64.0117 355.917 64.22 355.931 64.4249 355.904C64.6297 355.877 64.827 355.808 65.0049 355.703C65.1828 355.598 65.3378 355.458 65.4606 355.292C65.5834 355.126 65.6716 354.937 65.7198 354.736L65.7445 354.742Z" fill="#231F20"/>
<path d="M131.883 236.567C133.364 228.982 139.541 223.666 144.224 217.931C146.717 214.808 148.872 211.431 150.653 207.854C152.467 204.29 154.115 200.639 156.206 197.217C157.167 195.598 158.263 194.063 159.483 192.629C160.95 191.049 162.512 189.56 164.16 188.17C165.676 186.832 167.006 185.297 168.115 183.606C169.053 182.139 169.855 180.585 170.849 179.154C171.551 177.999 172.582 177.08 173.81 176.515C174.54 176.265 175.323 176.211 176.081 176.357C176.838 176.503 177.544 176.845 178.129 177.347C180.986 179.53 182.165 183.317 182.732 186.708C183.378 190.798 183.053 194.981 181.784 198.922C180.515 202.863 178.337 206.45 175.427 209.396C174.014 210.796 176.192 212.979 177.605 211.579C180.482 208.668 182.722 205.192 184.183 201.37C185.645 197.548 186.296 193.465 186.095 189.379C185.898 185.364 184.985 181.041 182.628 177.711C180.271 174.381 176.371 172.001 172.286 173.82C168.899 175.324 167.35 179.099 165.499 182.034C163.16 185.685 159.279 187.985 156.577 191.358C151.172 198.049 148.703 206.418 143.829 213.368C139.201 219.935 132.488 225.134 129.693 232.886C129.36 233.818 129.098 234.775 128.909 235.747C128.811 236.142 128.868 236.559 129.069 236.912C129.27 237.266 129.6 237.529 129.989 237.646C130.383 237.749 130.802 237.694 131.156 237.492C131.51 237.29 131.771 236.958 131.883 236.567Z" fill="#231F20"/>
<path d="M78.2698 336.951C79.1584 335.434 80.6948 334.558 82.2867 333.91C84.2427 333.115 86.285 332.56 88.2102 331.684C90.2469 330.736 92.0588 329.366 93.5257 327.665C94.9926 325.964 96.0811 323.971 96.719 321.817C97.2805 319.912 94.3064 319.098 93.7387 320.997C93.158 322.908 92.1429 324.659 90.7728 326.113C89.4027 327.567 87.7147 328.684 85.8408 329.378C82.1386 330.809 77.7824 331.703 75.6043 335.409C74.5985 337.123 77.2641 338.677 78.2698 336.969V336.951Z" fill="#231F20"/>
<path d="M115.952 284.823C113.422 289.374 110.895 293.927 108.369 298.482C106.117 302.564 103.692 307.042 103.285 311.771C103.213 312.285 103.249 312.808 103.39 313.307C103.531 313.806 103.775 314.27 104.105 314.67C104.555 315.107 105.127 315.396 105.746 315.5C106.364 315.603 106.999 315.516 107.567 315.25C109.515 314.408 111.341 313.309 112.997 311.981C116.318 309.364 119.244 306.282 121.684 302.83C124.404 298.97 126.889 294.95 129.126 290.792C130.101 289.059 127.435 287.505 126.466 289.238C122.764 295.793 118.976 302.527 113.379 307.664C112.093 308.855 110.701 309.926 109.22 310.865C108.486 311.334 107.727 311.759 106.95 312.16C106.763 312.258 106.569 312.342 106.37 312.413C105.753 312.641 106.314 312.327 106.37 312.555C106.425 312.783 106.444 312.228 106.37 312.431C106.37 312.388 106.37 312.006 106.37 311.87C106.628 309.878 107.181 307.934 108.011 306.104C108.867 304.109 109.835 302.163 110.911 300.277C113.466 295.633 116.057 291.026 118.63 286.377C119.593 284.644 116.933 283.083 115.965 284.823H115.952Z" fill="#231F20"/>
<path d="M112.762 234.563C114.462 234.252 116.053 233.509 117.382 232.405C118.711 231.301 119.734 229.874 120.351 228.26C120.458 227.859 120.403 227.431 120.197 227.07C119.987 226.727 119.657 226.474 119.271 226.361C118.877 226.266 118.462 226.325 118.11 226.526C117.758 226.726 117.496 227.053 117.377 227.44C117.247 227.761 117.531 227.113 117.377 227.44C117.346 227.514 117.315 227.582 117.278 227.656C117.241 227.73 117.124 227.964 117.038 228.119C116.865 228.421 116.649 228.692 116.464 228.988C116.68 228.637 116.544 228.889 116.464 228.988L116.316 229.167C116.198 229.303 116.081 229.426 115.958 229.549C115.716 229.799 115.458 230.034 115.187 230.252C114.971 230.425 115.39 230.104 115.236 230.215L115.045 230.351C114.892 230.462 114.732 230.567 114.563 230.665C114.267 230.844 113.946 230.998 113.644 231.153C113.342 231.307 113.885 231.06 113.706 231.153L113.49 231.239L112.99 231.406C112.642 231.51 112.288 231.591 111.929 231.646C111.535 231.757 111.201 232.019 111 232.375C110.799 232.73 110.747 233.151 110.855 233.545C110.973 233.933 111.235 234.261 111.588 234.46C111.94 234.66 112.356 234.717 112.749 234.618L112.762 234.563Z" fill="#231F20"/>
<path d="M121.771 224.289C124.264 222.684 126.1 220.241 126.947 217.401C127.052 217.007 126.999 216.587 126.798 216.232C126.597 215.877 126.266 215.615 125.874 215.501C125.479 215.402 125.061 215.458 124.707 215.659C124.353 215.86 124.09 216.19 123.973 216.58C123.887 216.876 123.788 217.197 123.677 217.456L123.646 217.53V217.604L123.443 218.023C123.169 218.561 122.851 219.074 122.492 219.559C122.431 219.639 122.264 219.812 122.536 219.503L122.418 219.651L122.116 220.003C121.906 220.231 121.69 220.459 121.468 220.669C121.246 220.879 120.993 221.064 120.765 221.286C120.814 221.243 121.018 221.095 120.857 221.218L120.666 221.354C120.53 221.452 120.388 221.545 120.246 221.637C120.071 221.739 119.918 221.875 119.796 222.036C119.673 222.197 119.583 222.381 119.532 222.577C119.48 222.773 119.468 222.977 119.495 223.177C119.522 223.378 119.589 223.571 119.691 223.746C119.793 223.921 119.929 224.074 120.09 224.197C120.251 224.319 120.435 224.409 120.631 224.461C120.827 224.512 121.031 224.525 121.232 224.497C121.433 224.47 121.626 224.403 121.801 224.301L121.771 224.289Z" fill="#231F20"/>
<path d="M127.762 215.409C129.383 213.597 130.804 211.617 132.001 209.501C132.111 209.326 132.185 209.131 132.218 208.927C132.251 208.724 132.243 208.515 132.194 208.315C132.145 208.114 132.056 207.926 131.933 207.76C131.809 207.595 131.654 207.455 131.476 207.351C131.298 207.246 131.101 207.179 130.896 207.152C130.691 207.125 130.483 207.14 130.284 207.195C130.085 207.25 129.899 207.344 129.737 207.472C129.575 207.6 129.441 207.76 129.342 207.941C128.777 208.929 128.159 209.886 127.491 210.808C127.336 211.03 127.176 211.246 127.016 211.462C126.972 211.517 126.935 211.573 126.892 211.622L126.855 211.672L126.793 211.752L126.664 211.912C126.306 212.364 125.936 212.802 125.553 213.226C125.272 213.516 125.116 213.905 125.119 214.31C125.122 214.714 125.283 215.101 125.569 215.387C125.855 215.673 126.241 215.836 126.646 215.84C127.05 215.844 127.44 215.689 127.731 215.409H127.762Z" fill="#231F20"/>
<path d="M105.512 253.489C112.175 243.847 119.368 234.583 127.058 225.738C130.668 221.582 134.463 217.549 137.659 213.065C139.231 210.905 140.607 208.608 141.768 206.202C142.873 203.864 143.749 201.41 145.434 199.418C148.654 195.582 153.177 192.789 154.788 187.8C155.405 185.907 152.418 185.099 151.814 186.98C150.505 191.031 146.569 193.56 143.823 196.581C142.153 198.491 140.809 200.662 139.843 203.007C138.769 205.479 137.477 207.851 135.981 210.093C133.007 214.533 129.348 218.461 125.831 222.47C121.984 226.856 118.264 231.344 114.669 235.932C110.555 241.161 106.614 246.506 102.846 251.966C102.642 252.319 102.585 252.739 102.689 253.135C102.793 253.53 103.049 253.868 103.402 254.075C103.757 254.274 104.175 254.328 104.569 254.225C104.963 254.121 105.301 253.868 105.512 253.52V253.489Z" fill="#231F20"/>
<path d="M170.787 169.694C174.082 166.74 179.333 167.893 182.566 170.342C186.768 173.524 188.638 179.024 190.236 183.828C191.186 186.696 192.284 189.662 192.118 192.727C191.963 195.601 190.507 198.234 189.07 200.645C185.688 206.325 182.177 211.937 178.728 217.579L166.906 236.906C165.869 238.608 168.535 240.156 169.572 238.466L180.746 220.188C184.448 214.157 188.2 208.163 191.803 202.082C193.469 199.289 194.888 196.31 195.184 193.017C195.481 189.724 194.327 186.375 193.284 183.243C191.513 177.89 189.44 171.982 184.917 168.294C180.394 164.606 173.28 163.324 168.609 167.511C167.128 168.837 169.312 171.014 170.787 169.694Z" fill="#231F20"/>
<path d="M158.706 219.602C159.973 217.485 161.418 215.48 163.025 213.608C163.876 212.621 164.769 211.676 165.703 210.771C166.116 210.37 167.258 208.921 167.899 209.112C168.541 209.304 168.776 210.543 168.831 211.08C168.917 212.205 168.739 213.334 168.313 214.379C167.486 216.642 165.882 218.517 164.407 220.379C162.698 222.55 161.057 224.795 160.347 227.508C159.847 229.432 162.815 230.246 163.321 228.328C163.994 225.769 165.684 223.697 167.301 221.668C169.115 219.386 170.929 216.969 171.62 214.077C172.237 211.53 172.027 207.91 169.442 206.448C166.542 204.826 163.889 208.144 162.093 210.031C159.793 212.482 157.758 215.17 156.022 218.048C154.997 219.75 157.663 221.298 158.687 219.602H158.706Z" fill="#231F20"/>
<path d="M149.851 214.903C153.048 227.755 161.057 238.954 168.745 249.468C172.821 255.055 177.075 260.513 181.505 265.841C183.597 268.351 185.676 270.941 188.206 273.032C190.736 275.122 193.673 276.51 196.721 277.737C199.55 278.825 202.312 280.083 204.989 281.505C207.57 282.946 210.071 284.527 212.48 286.241C217.317 289.645 221.895 293.394 226.671 296.86C231.381 300.386 236.5 303.328 241.918 305.623C247.107 307.732 252.549 309.12 257.911 310.723C263.094 312.271 268.277 314.016 272.874 316.927C277.645 319.875 281.353 324.264 283.462 329.458C283.997 330.83 284.42 332.243 284.727 333.682C285.147 335.619 288.127 334.798 287.708 332.862C286.415 326.935 283.287 321.567 278.767 317.519C274.596 313.819 269.549 311.402 264.335 309.551C259.121 307.701 253.685 306.382 248.397 304.686C243.005 302.981 237.86 300.576 233.095 297.532C223.16 291.143 214.584 282.664 203.891 277.465C201.04 276.084 198.023 275.085 195.153 273.765C192.305 272.44 189.746 270.564 187.626 268.246C185.287 265.749 183.146 263.054 180.993 260.402C178.839 257.75 176.772 255.105 174.73 252.385C170.62 246.958 166.641 241.408 162.945 235.691C159.477 230.332 156.287 224.721 154.183 218.671C153.665 217.166 153.208 215.637 152.825 214.089C152.344 212.165 149.37 212.985 149.851 214.909V214.903Z" fill="#231F20"/>
<path d="M341.426 240.748C339.212 251.363 336.415 261.848 333.047 272.156C329.68 282.473 325.739 292.594 321.243 302.472C319.003 307.405 316.344 312.222 314.863 317.451C313.456 322.434 313.105 327.651 311.877 332.677C309.713 341.406 306.042 349.691 301.029 357.159C296.088 364.569 289.885 371.056 282.704 376.326C281.803 376.98 280.883 377.615 279.958 378.231C278.31 379.323 279.853 381.993 281.513 380.889C296.937 370.579 308.324 355.26 313.746 337.524C315.184 332.8 315.931 327.996 316.776 323.143C317.219 320.41 317.923 317.725 318.88 315.126C319.824 312.623 321.009 310.193 322.15 307.788C326.861 297.82 331.02 287.6 334.608 277.176C338.175 266.786 341.16 256.206 343.549 245.484C343.845 244.173 344.129 242.859 344.4 241.544C344.5 241.15 344.443 240.733 344.242 240.38C344.04 240.027 343.71 239.766 343.32 239.651C342.927 239.544 342.507 239.597 342.153 239.798C341.798 239.999 341.537 240.332 341.426 240.724V240.748Z" fill="#231F20"/>
<path d="M279.724 378.447C273.479 376.11 267.506 373.514 262.083 369.567C256.493 365.515 251.143 361.1 245.707 356.851L228.837 343.642C223.364 339.38 217.811 335.162 212.443 330.79C209.86 328.724 207.389 326.524 205.039 324.198C202.731 321.879 200.633 319.363 198.424 316.952C193.92 312.018 188.607 308.121 183.159 304.322L165.981 292.334C163.403 290.416 160.705 288.665 157.904 287.092C154.957 285.515 151.692 284.623 148.352 284.483C144.946 284.366 141.701 285.149 138.424 285.982C136.9 286.429 135.323 286.668 133.735 286.691C132.106 286.59 130.507 286.209 129.008 285.563C123.856 283.595 118.334 281.412 114.169 277.687C113.182 276.821 112.288 275.854 111.503 274.801C111.289 274.458 110.95 274.209 110.558 274.107C110.165 274.005 109.748 274.057 109.393 274.253C109.042 274.461 108.787 274.799 108.684 275.194C108.581 275.589 108.639 276.009 108.844 276.362C112.312 281.073 117.377 283.965 122.659 286.259C125.479 287.493 128.428 288.942 131.47 289.522C134.938 290.181 138.202 289.189 141.54 288.362C144.699 287.489 148.013 287.331 151.24 287.9C154.368 288.516 157.157 290.083 159.804 291.816C165.641 295.645 171.287 299.783 177.013 303.773C182.468 307.578 188.12 311.235 192.988 315.798C195.413 318.074 197.566 320.602 199.775 323.075C202.004 325.572 204.384 327.93 206.902 330.136C212.141 334.7 217.756 338.856 223.229 343.136L240.098 356.327C245.725 360.73 251.334 365.152 256.98 369.53C259.572 371.61 262.294 373.521 265.131 375.253C268.057 376.929 271.103 378.387 274.244 379.613C275.793 380.229 277.36 380.846 278.928 381.42C279.322 381.528 279.744 381.476 280.099 381.274C280.455 381.073 280.716 380.738 280.825 380.344C280.934 379.949 280.882 379.528 280.68 379.173C280.478 378.817 280.143 378.556 279.748 378.447H279.724Z" fill="#231F20"/>
<path d="M114.533 272.514C117.867 272.04 121.26 272.813 124.06 274.684C124.235 274.786 124.428 274.853 124.629 274.88C124.829 274.908 125.034 274.895 125.23 274.844C125.426 274.792 125.609 274.702 125.771 274.58C125.932 274.457 126.068 274.304 126.17 274.129C126.272 273.954 126.338 273.761 126.366 273.56C126.393 273.36 126.381 273.156 126.329 272.96C126.278 272.764 126.188 272.58 126.065 272.419C125.943 272.258 125.789 272.122 125.614 272.02C122.335 269.871 118.4 268.953 114.508 269.43C114.102 269.441 113.716 269.607 113.429 269.894C113.142 270.181 112.976 270.566 112.965 270.972C113.002 271.718 113.65 272.625 114.508 272.514H114.533Z" fill="#231F20"/>
<path d="M128.872 259.902L122.745 257.374C122.546 257.319 122.339 257.304 122.134 257.33C121.93 257.357 121.732 257.424 121.554 257.528C121.21 257.733 120.956 258.062 120.845 258.447C120.74 258.849 120.795 259.275 120.999 259.637C121.223 259.967 121.548 260.216 121.925 260.346L128.052 262.875C128.25 262.93 128.458 262.944 128.663 262.918C128.867 262.891 129.064 262.824 129.243 262.721C129.587 262.516 129.841 262.187 129.952 261.802C130.057 261.4 130.001 260.973 129.798 260.612C129.574 260.282 129.249 260.033 128.872 259.902Z" fill="#231F20"/>
<path d="M132.383 246.255L127.589 246.668C127.181 246.679 126.791 246.842 126.497 247.125C126.283 247.341 126.137 247.615 126.079 247.913C126.02 248.212 126.051 248.521 126.168 248.802C126.285 249.082 126.482 249.322 126.735 249.491C126.988 249.661 127.285 249.751 127.589 249.752L132.383 249.339C132.789 249.329 133.176 249.169 133.469 248.888C133.685 248.673 133.832 248.399 133.892 248.1C133.952 247.801 133.922 247.491 133.806 247.209C133.69 246.928 133.493 246.687 133.239 246.517C132.986 246.347 132.688 246.256 132.383 246.255Z" fill="#231F20"/>
<path d="M135.031 239.194L143.564 238.251C144.872 238.103 146.032 237.813 146.532 236.401C146.863 235.147 147.092 233.868 147.217 232.577C147.655 229.962 148.124 227.348 148.531 224.721C148.877 222.464 149.08 219.904 147.593 217.974C147.378 217.63 147.04 217.382 146.648 217.28C146.255 217.178 145.838 217.23 145.483 217.425C145.132 217.633 144.877 217.972 144.774 218.367C144.671 218.762 144.729 219.181 144.934 219.534C145.983 220.897 145.761 222.649 145.495 224.252C145.119 226.558 144.724 228.859 144.342 231.165L143.768 234.569C143.768 234.68 143.576 235.223 143.638 235.303C143.57 235.519 143.638 235.457 143.897 235.106C143.69 235.118 143.484 235.145 143.28 235.186L142.367 235.284L135.055 236.092C134.649 236.102 134.262 236.267 133.975 236.554C133.688 236.841 133.522 237.228 133.513 237.634C133.518 238.041 133.682 238.431 133.97 238.719C134.258 239.007 134.648 239.171 135.055 239.176L135.031 239.194Z" fill="#231F20"/>
<path d="M271.819 307.553C275.191 288.806 279.763 270.295 285.505 252.132C287.15 246.96 288.88 241.821 290.694 236.715C290.748 236.52 290.763 236.316 290.738 236.115C290.713 235.914 290.649 235.72 290.549 235.544C290.449 235.368 290.315 235.213 290.155 235.089C289.995 234.964 289.813 234.873 289.617 234.819C289.422 234.765 289.218 234.75 289.017 234.775C288.816 234.8 288.622 234.864 288.446 234.964C288.269 235.064 288.115 235.198 287.99 235.357C287.866 235.517 287.774 235.7 287.72 235.895C281.319 253.836 276.074 272.169 272.017 290.78C270.861 296.075 269.803 301.397 268.845 306.746C268.747 307.139 268.805 307.556 269.006 307.908C269.207 308.261 269.536 308.522 269.925 308.639C270.318 308.743 270.737 308.69 271.091 308.489C271.445 308.288 271.707 307.957 271.819 307.566V307.553Z" fill="#231F20"/>
<path d="M255.036 116.407C260.454 125.903 268.95 133.057 277.811 139.224C282.525 142.505 287.381 145.569 292.2 148.684L308.631 159.254C313.746 162.553 318.905 165.803 324.532 168.159C327.185 169.269 330.085 169.891 332.646 171.149C335.083 172.34 336.725 174.288 338.094 176.582C343.876 186.277 346.733 197.636 348.164 208.749C348.905 214.515 349.281 220.318 349.485 226.127C349.583 229 349.639 231.88 349.67 234.76C349.67 237.264 349.88 240.366 348.01 242.321C347.677 242.707 347.261 243.013 346.793 243.216C346.325 243.418 345.817 243.513 345.307 243.492C343.327 243.388 343.333 246.471 345.307 246.576C348.09 246.724 350.595 244.726 351.7 242.259C352.977 239.398 352.78 236.185 352.736 233.126C352.65 227.175 352.446 221.23 351.947 215.304C350.947 203.538 348.744 191.784 343.833 180.979C342.702 178.345 341.331 175.82 339.736 173.437C338.091 171.006 335.77 169.109 333.059 167.98C330.314 166.833 327.42 166.13 324.692 164.896C321.922 163.638 319.229 162.215 316.628 160.635C311.075 157.299 305.651 153.66 300.196 150.151C294.853 146.704 289.491 143.288 284.185 139.791C275.145 133.834 266.013 127.272 259.812 118.207C259.059 117.11 258.362 115.981 257.702 114.828C256.721 113.101 254.049 114.655 255.036 116.382V116.407Z" fill="#231F20"/>
<path d="M257.214 114.236C255.675 111.389 254.381 108.416 253.346 105.349C252.414 102.18 252.135 98.8551 252.525 95.575C252.864 92.2511 253.623 88.9827 254.08 85.6773C254.556 82.235 254.61 78.7476 254.24 75.2923C253.835 71.8098 253.194 68.3587 252.321 64.9629C251.507 61.6822 250.668 58.3891 249.637 55.1638C247.663 48.96 243.806 43.6812 240.116 38.3901C233.391 28.7575 225.462 19.4456 213.893 15.7455C202.064 11.9652 189.113 14.2284 178.321 19.9759C167.418 25.7789 158.342 34.8935 151.345 44.9762C147.858 49.996 144.409 55.5153 143.064 61.5527C142.334 64.4594 142.351 67.5036 143.113 70.402C143.916 73.1278 145.619 75.28 147.433 77.4261C148.802 79.0664 150.567 80.972 150.697 83.2229C150.771 84.5796 150.148 85.8438 149.691 87.0833C149.096 88.4509 148.924 89.965 149.197 91.4309C149.814 94.0272 152.208 95.7045 153.634 97.8382C154.853 99.7185 155.816 101.753 156.497 103.888C159.403 112.595 159.335 123.246 166.19 130.134C167.113 131.022 168.105 131.835 169.158 132.564C170.127 133.273 171.275 134.068 171.744 135.222C172.299 136.591 171.744 138.194 171.188 139.464C170.54 140.963 169.751 142.406 169.016 143.855C166.048 149.701 162.846 155.455 158.632 160.506C156.503 163.04 154.251 165.439 152.227 168.078C150.183 170.771 148.34 173.609 146.711 176.57C143.231 182.768 139.923 189.064 136.542 195.317L131.569 204.506C130.625 206.251 133.29 207.811 134.234 206.06L144.36 187.35C147.544 181.467 150.53 175.294 154.621 169.984C156.645 167.369 158.94 164.958 161.038 162.417C163.132 159.898 165.04 157.228 166.746 154.431C168.412 151.705 169.917 148.881 171.367 146.032C172.817 143.183 174.718 140.26 175.014 137.065C175.31 133.871 173.224 131.75 170.83 129.998C169.014 128.736 167.458 127.136 166.246 125.287C163.815 121.439 162.828 116.888 161.853 112.503C160.835 107.872 159.872 103.179 157.774 98.8928C156.679 96.7508 155.292 94.7709 153.652 93.0096C152.869 92.1278 152.048 91.1596 152.128 89.9262C152.215 88.5572 152.986 87.2621 153.362 85.9733C155.096 80.4231 150.382 76.8525 147.599 72.7578C144.267 67.8243 145.686 61.7068 148.013 56.6809C150.731 51.0616 154.148 45.8072 158.181 41.0418C162.013 36.3412 166.359 32.0842 171.139 28.3505C180.579 21.0674 192.118 16.3375 204.175 17.0898C210.047 17.4257 215.741 19.2348 220.729 22.3501C225.548 25.4336 229.534 29.59 233.07 34.0301C236.773 38.7071 240.185 43.6066 243.288 48.701C246.768 54.4176 248.274 61.121 249.773 67.5838C250.588 70.8893 251.118 74.2584 251.359 77.6542C251.511 80.9573 251.292 84.2671 250.705 87.5211C250.137 90.9006 249.434 94.3047 249.292 97.7088C249.166 100.919 249.639 104.125 250.686 107.162C251.776 110.126 253.069 113.01 254.555 115.796C255.45 117.566 258.115 116.012 257.22 114.242L257.214 114.236Z" fill="#231F20"/>
<path d="M180.555 154.505C184.859 157.51 189.99 159.106 195.24 159.075C200.793 159.032 206.019 157.015 210.875 154.518C215.731 152.02 220.39 149.257 224.45 145.693C232.22 138.894 237.666 129.835 240.024 119.786C240.474 117.856 237.5 117.029 237.05 118.966C234.996 127.78 230.421 135.806 223.882 142.067C220.273 145.514 216.108 148.172 211.751 150.571C207.395 152.97 202.545 155.356 197.436 155.887C192.008 156.435 186.564 155.003 182.109 151.853C181.755 151.651 181.335 151.595 180.941 151.699C180.546 151.803 180.208 152.058 179.999 152.408C179.801 152.764 179.748 153.182 179.852 153.575C179.955 153.968 180.207 154.306 180.555 154.518V154.505Z" fill="#231F20"/>
<path d="M184.652 134.981C188.378 134.181 192.166 133.703 195.974 133.55C196.383 133.55 196.776 133.388 197.065 133.099C197.354 132.81 197.517 132.417 197.517 132.009C197.517 131.6 197.354 131.208 197.065 130.918C196.776 130.629 196.383 130.467 195.974 130.467C191.89 130.635 187.827 131.15 183.831 132.009C183.439 132.121 183.107 132.382 182.906 132.736C182.704 133.089 182.648 133.508 182.751 133.902C182.866 134.293 183.129 134.624 183.483 134.825C183.838 135.026 184.257 135.082 184.652 134.981Z" fill="#231F20"/>
<path d="M189.427 138.015C191.868 137.58 194.086 136.324 195.715 134.457C195.995 134.161 196.156 133.772 196.165 133.365C196.165 133.061 196.074 132.764 195.905 132.511C195.736 132.259 195.495 132.062 195.214 131.945C194.934 131.828 194.624 131.797 194.326 131.856C194.027 131.914 193.753 132.06 193.537 132.274C193.187 132.676 192.806 133.05 192.395 133.39L192.259 133.507C192.05 133.674 192.482 133.341 192.327 133.452L192 133.686C191.778 133.834 191.55 133.976 191.322 134.105C191.093 134.235 190.877 134.346 190.649 134.451C190.578 134.475 190.51 134.506 190.445 134.543C190.489 134.512 190.766 134.414 190.569 134.488L190.192 134.629C189.677 134.814 189.146 134.952 188.607 135.043C188.415 135.093 188.234 135.182 188.077 135.302C187.919 135.423 187.786 135.574 187.687 135.746C187.531 136.01 187.457 136.316 187.476 136.622C187.494 136.929 187.604 137.223 187.791 137.467C187.978 137.711 188.234 137.893 188.525 137.991C188.817 138.089 189.131 138.097 189.427 138.015Z" fill="#231F20"/>
<path d="M154.035 183.835C156.767 181.75 159.125 179.216 161.007 176.342C163.124 173.32 165.129 170.206 167.177 167.123C171.392 160.697 175.439 154.172 179.61 147.722C180.041 147.002 180.573 146.347 181.19 145.779C181.717 145.37 182.277 145.002 182.862 144.681C184.337 143.781 185.565 142.831 186.213 141.166C186.266 140.97 186.279 140.764 186.252 140.562C186.225 140.36 186.158 140.166 186.056 139.989C185.953 139.813 185.816 139.659 185.654 139.536C185.491 139.414 185.306 139.324 185.108 139.273C184.715 139.173 184.298 139.229 183.945 139.429C183.592 139.629 183.33 139.958 183.214 140.346C182.85 141.265 181.56 141.839 180.746 142.344C179.47 143.105 178.363 144.118 177.494 145.323C176.433 146.778 175.538 148.363 174.582 149.886L171.657 154.493C167.65 160.758 163.582 166.983 159.452 173.166C157.478 176.095 155.38 179.086 152.474 181.183C152.13 181.398 151.881 181.735 151.778 182.127C151.674 182.519 151.725 182.936 151.918 183.292C152.128 183.643 152.467 183.898 152.864 184.001C153.26 184.104 153.681 184.046 154.035 183.841V183.835Z" fill="#231F20"/>
<path d="M236.365 82.7418C238.143 79.0799 240.648 75.8174 243.726 73.1524C243.873 73.01 243.99 72.8397 244.071 72.6515C244.152 72.4633 244.194 72.2609 244.195 72.0562C244.197 71.8515 244.158 71.6486 244.08 71.4592C244.002 71.2699 243.887 71.0979 243.742 70.9534C243.597 70.8088 243.425 70.6946 243.235 70.6174C243.045 70.5401 242.842 70.5014 242.637 70.5034C242.432 70.5055 242.23 70.5483 242.042 70.6294C241.854 70.7104 241.684 70.8281 241.542 70.9755C238.29 73.8338 235.63 77.3011 233.712 81.1816C233.505 81.5349 233.447 81.9559 233.55 82.352C233.654 82.7481 233.911 83.0869 234.264 83.2938C234.617 83.5007 235.039 83.5588 235.435 83.4552C235.831 83.3517 236.17 83.0951 236.377 82.7418H236.365Z" fill="#231F20"/>
<path d="M244.245 72.9798C244.059 73.0599 244.479 72.9798 244.3 72.9798C244.121 72.9798 244.572 72.9798 244.572 72.9798C244.399 72.9798 244.572 72.9798 244.633 73.0106C244.849 73.0846 244.676 73.0106 244.806 73.0599C245.182 73.236 245.512 73.4979 245.769 73.8246C246.423 74.6387 246.62 75.9028 246.867 77.0005C247.135 78.2875 247.61 79.5226 248.274 80.6575C248.559 81.0714 248.784 81.5242 248.94 82.0018C249.051 82.4335 248.94 81.9217 248.94 82.1622C248.94 82.2054 248.94 82.5569 248.94 82.3164C248.94 82.3719 248.878 82.563 248.94 82.3965C248.841 82.6494 248.996 82.3965 248.792 82.5692C248.649 82.7125 248.535 82.8827 248.457 83.07C248.38 83.2573 248.34 83.458 248.34 83.6607C248.34 83.8634 248.38 84.0642 248.457 84.2515C248.535 84.4387 248.649 84.6089 248.792 84.7523C248.935 84.8956 249.106 85.0093 249.293 85.0869C249.481 85.1645 249.681 85.2044 249.884 85.2044C250.087 85.2044 250.288 85.1645 250.475 85.0869C250.663 85.0093 250.833 84.8956 250.976 84.7523C252.359 83.4819 252.173 81.4962 251.408 79.9606C251.081 79.3069 250.618 78.7273 250.341 78.0427C250.049 77.2413 249.828 76.4159 249.681 75.576C249.317 73.9603 248.774 72.3508 247.496 71.2161C246.876 70.5957 246.083 70.1771 245.221 70.0154C244.359 69.8536 243.468 69.9561 242.665 70.3095C242.314 70.5178 242.059 70.8558 241.955 71.2504C241.851 71.645 241.907 72.0646 242.11 72.4186C242.323 72.7635 242.661 73.0133 243.054 73.1165C243.447 73.2198 243.864 73.1686 244.22 72.9736L244.245 72.9798Z" fill="#231F20"/>
<path d="M235.989 103.376C236.043 104.222 236.345 105.033 236.857 105.709C237.37 106.385 238.07 106.894 238.87 107.175C239.618 107.454 240.419 107.565 241.215 107.498C242.01 107.432 242.782 107.191 243.473 106.792C244.858 105.968 246.054 104.863 246.984 103.549C248.123 102.093 249.104 100.52 249.909 98.8557C250.104 98.5 250.155 98.0829 250.052 97.6906C249.949 97.2982 249.699 96.9604 249.354 96.7467C248.999 96.5438 248.58 96.4883 248.185 96.5921C247.79 96.696 247.452 96.9508 247.243 97.3017C246.628 98.5801 245.908 99.8054 245.09 100.965C244.412 102 243.58 102.926 242.622 103.709C242.255 103.957 241.861 104.163 241.449 104.326L241.036 104.431C240.617 104.529 241.227 104.474 240.851 104.431H240.493C240.326 104.431 240.672 104.492 240.394 104.431L239.975 104.313C239.716 104.233 240.018 104.35 239.882 104.27L239.568 104.091C239.265 103.919 239.666 104.239 239.438 103.987C239.438 103.956 239.16 103.691 239.278 103.832C239.395 103.974 239.191 103.684 239.166 103.654C238.92 103.29 239.327 103.906 239.117 103.518C238.981 103.271 239.117 103.691 239.117 103.382C239.109 102.976 238.944 102.588 238.657 102.301C238.369 102.013 237.981 101.848 237.575 101.84C237.166 101.844 236.776 102.007 236.487 102.296C236.199 102.584 236.035 102.974 236.032 103.382L235.989 103.376Z" fill="#231F20"/>
<path d="M91.8691 255.764C91.0669 246.806 90.0385 237.868 88.7839 228.951C88.4754 226.739 88.1484 224.523 87.8029 222.303C87.4882 220.237 87.0933 218.178 86.9575 216.087C86.7569 214.179 87.015 212.251 87.7103 210.463C88.4137 208.956 89.447 207.626 90.7337 206.572C94.0657 203.716 98.57 202.724 102.723 201.731C104.654 201.268 103.839 198.296 101.902 198.758C97.8542 199.727 93.6523 200.75 90.1784 203.143C86.8711 205.431 84.4894 208.693 83.9711 212.726C83.7673 214.93 83.8607 217.152 84.2488 219.331C84.5758 221.606 84.9583 223.87 85.2915 226.145C85.9785 230.746 86.5955 235.352 87.1426 239.965C87.772 245.227 88.3232 250.494 88.7963 255.764C88.8072 256.17 88.9732 256.556 89.2601 256.843C89.5471 257.129 89.9332 257.295 90.3388 257.306C90.7465 257.301 91.136 257.137 91.4243 256.849C91.7125 256.561 91.8766 256.172 91.8814 255.764H91.8691Z" fill="#231F20"/>
<path d="M104.068 199.338C106.258 198.473 108.605 198.078 110.957 198.178C113.309 198.278 115.614 198.871 117.723 199.918C118.078 200.116 118.496 200.169 118.89 200.065C119.283 199.962 119.621 199.71 119.833 199.363C120.037 199.009 120.093 198.59 119.99 198.196C119.888 197.801 119.634 197.463 119.284 197.254C116.82 195.996 114.12 195.266 111.357 195.112C108.594 194.958 105.83 195.383 103.241 196.359C102.853 196.478 102.524 196.741 102.324 197.095C102.123 197.448 102.065 197.864 102.161 198.259C102.274 198.652 102.536 198.985 102.891 199.186C103.246 199.388 103.667 199.443 104.062 199.338H104.068Z" fill="#231F20"/>
<path d="M97.4163 215.649C100.381 213.507 103.632 211.791 107.073 210.549C107.461 210.43 107.79 210.167 107.99 209.814C108.191 209.461 108.249 209.044 108.153 208.65C108.04 208.257 107.778 207.925 107.422 207.724C107.067 207.523 106.646 207.47 106.252 207.577C102.55 208.88 99.052 210.701 95.8614 212.985C95.5163 213.199 95.2664 213.537 95.1631 213.929C95.0597 214.321 95.1109 214.738 95.3061 215.094C95.5145 215.445 95.8526 215.7 96.2474 215.804C96.6422 215.908 97.0621 215.852 97.4163 215.649Z" fill="#231F20"/>
<path d="M99.8104 235.254C99.9679 232.46 100.748 229.737 102.093 227.283C103.438 224.829 105.314 222.706 107.585 221.07C107.93 220.856 108.18 220.518 108.283 220.126C108.387 219.734 108.335 219.317 108.14 218.961C107.932 218.61 107.593 218.355 107.198 218.252C106.803 218.15 106.383 218.207 106.03 218.412C103.308 220.333 101.057 222.845 99.4452 225.759C97.8337 228.674 96.9038 231.916 96.7253 235.241C96.6204 237.227 99.7055 237.221 99.8104 235.241V235.254Z" fill="#231F20"/>
<path d="M100.132 237.609L104.512 236.407C104.905 236.296 105.238 236.035 105.44 235.681C105.642 235.327 105.697 234.908 105.592 234.514C105.478 234.123 105.217 233.792 104.864 233.591C104.51 233.389 104.092 233.333 103.698 233.434L99.3418 234.637C99.1465 234.691 98.9637 234.783 98.8039 234.907C98.6441 235.031 98.5104 235.186 98.4104 235.362C98.3105 235.538 98.2462 235.732 98.2212 235.933C98.1963 236.134 98.2112 236.338 98.2651 236.533C98.3189 236.728 98.4108 236.911 98.5353 237.071C98.6598 237.23 98.8145 237.364 98.9907 237.464C99.1669 237.564 99.3611 237.628 99.5621 237.653C99.7632 237.678 99.9671 237.663 100.162 237.609H100.132Z" fill="#231F20"/>
<path d="M114.508 211.628L114.625 211.474L114.384 211.789C114.852 211.181 115.395 210.636 116.001 210.167L115.693 210.407C115.853 210.284 116.02 210.161 116.186 210.05C116.528 209.839 116.781 209.51 116.896 209.125C116.962 208.926 116.973 208.713 116.927 208.508C116.916 208.304 116.852 208.106 116.742 207.935C116.54 207.587 116.21 207.332 115.822 207.225C115.624 207.168 115.416 207.153 115.211 207.179C115.006 207.206 114.809 207.274 114.631 207.38C113.542 208.09 112.598 209 111.848 210.062C111.737 210.233 111.673 210.431 111.663 210.636C111.618 210.84 111.629 211.053 111.694 211.252C111.799 211.639 112.052 211.969 112.398 212.171C112.758 212.379 113.186 212.437 113.589 212.332L113.959 212.171C114.185 212.037 114.374 211.849 114.508 211.622V211.628Z" fill="#231F20"/>
<path d="M114.15 212.035C114.471 212.227 114.767 212.43 115.094 212.652C115.244 212.778 115.403 212.894 115.569 212.997C115.427 212.923 115.384 212.849 115.569 212.997L115.773 213.17C116.352 213.645 116.892 214.165 117.39 214.724C117.636 214.983 117.867 215.257 118.081 215.544C117.846 215.205 118.05 215.514 118.081 215.544L118.241 215.766L118.543 216.204C118.963 216.846 119.334 217.518 119.654 218.215C119.861 218.567 120.2 218.823 120.595 218.927C120.99 219.031 121.411 218.974 121.764 218.77C122.11 218.556 122.359 218.218 122.461 217.825C122.564 217.432 122.511 217.015 122.314 216.661C120.891 213.624 118.592 211.083 115.711 209.365C115.358 209.158 114.937 209.1 114.54 209.204C114.144 209.307 113.805 209.564 113.598 209.917C113.391 210.27 113.333 210.691 113.436 211.088C113.54 211.484 113.797 211.822 114.15 212.029V212.035Z" fill="#231F20"/>
<path d="M120.413 206.122C121.26 205.344 122.128 204.598 123.017 203.883L123.634 203.377C123.856 203.205 123.449 203.519 123.603 203.377L123.763 203.254L124.084 203.013C124.559 202.656 125.034 202.31 125.522 201.971C125.86 201.76 126.11 201.434 126.225 201.052C126.333 200.651 126.278 200.223 126.071 199.862C125.862 199.512 125.523 199.259 125.128 199.156C124.733 199.053 124.314 199.11 123.961 199.313C121.946 200.718 120.027 202.255 118.216 203.914C117.929 204.205 117.768 204.597 117.768 205.005C117.768 205.414 117.929 205.806 118.216 206.097C118.509 206.378 118.899 206.534 119.305 206.534C119.711 206.534 120.101 206.378 120.394 206.097L120.413 206.122Z" fill="#231F20"/>
<path d="M122.171 204.783C122.689 205.186 123.174 205.629 123.621 206.109C123.856 206.362 124.072 206.615 124.281 206.88C124.491 207.145 124.158 206.707 124.281 206.88L124.411 207.053L124.713 207.491C125.073 208.041 125.391 208.619 125.664 209.217C125.689 209.283 125.717 209.346 125.75 209.408C125.565 209.131 125.694 209.273 125.75 209.408C125.805 209.544 125.867 209.711 125.923 209.859C126.04 210.192 126.145 210.537 126.237 210.876C126.348 211.268 126.609 211.601 126.964 211.803C127.318 212.005 127.737 212.06 128.132 211.955C128.523 211.84 128.854 211.578 129.055 211.224C129.257 210.869 129.313 210.451 129.211 210.056C128.434 207.135 126.738 204.541 124.374 202.656C124.076 202.379 123.688 202.219 123.282 202.206C122.875 202.208 122.485 202.369 122.196 202.656C121.684 203.211 121.517 204.308 122.196 204.839L122.171 204.783Z" fill="#231F20"/>
<path d="M107.048 224.425L111.867 221.643C112.221 221.436 112.478 221.098 112.581 220.702C112.685 220.306 112.627 219.885 112.42 219.531C112.213 219.178 111.874 218.921 111.477 218.818C111.081 218.714 110.66 218.772 110.306 218.979L105.512 221.761C105.159 221.967 104.902 222.306 104.798 222.702C104.695 223.098 104.753 223.519 104.96 223.873C105.167 224.226 105.506 224.483 105.902 224.586C106.298 224.69 106.72 224.632 107.073 224.425H107.048Z" fill="#231F20"/>
<path d="M108.597 222.821C108.964 224.094 109.682 225.238 110.67 226.121C111.071 226.515 111.491 226.904 111.904 227.311C112.101 227.514 112.293 227.73 112.478 227.927C112.663 228.125 112.249 227.619 112.41 227.841L112.509 227.983C112.595 228.112 112.681 228.242 112.755 228.371C112.964 228.722 113.302 228.977 113.697 229.081C114.092 229.185 114.511 229.129 114.866 228.926C115.213 228.715 115.465 228.377 115.569 227.984C115.672 227.591 115.619 227.172 115.421 226.817C114.821 225.879 114.094 225.028 113.261 224.289C112.916 223.95 112.564 223.611 112.249 223.241C112.157 223.13 111.91 222.753 112.206 223.204C112.145 223.105 112.071 223.019 112.009 222.92C111.873 222.71 111.753 222.489 111.651 222.26L111.805 222.63C111.72 222.418 111.649 222.199 111.595 221.976C111.484 221.584 111.224 221.251 110.869 221.049C110.515 220.848 110.095 220.793 109.701 220.897C109.311 221.014 108.981 221.276 108.779 221.63C108.578 221.984 108.522 222.402 108.621 222.797L108.597 222.821Z" fill="#231F20"/>
</svg>
